# xmcd
#
# Track frame offsets:
#	150
#	17120
#	33542
#	48642
#	61250
#	79520
#	95340
#	113272
#	131177
#	145740
#
# Disc length: 2149 seconds
#
# Revision: 0
# Processed by: cddbd v1.5.1PL0 Copyright (c) Steve Scherf et al.
# Submitted via: dBpowerAMP V4.0
#
DISCID=7d08630a
DTITLE=Nicola Di Bari - Romántico
DYEAR=1900
DGENRE=Romántico
TTITLE0=Rosa
TTITLE1=Cruza el río
TTITLE2=Mi libertad
TTITLE3=Tu me acostumbraste
TTITLE4=Es la vida
TTITLE5=Volver, volver
TTITLE6=Los días lejanos
TTITLE7=Serenata, serenata
TTITLE8=Una historia más
TTITLE9=Iguazú
EXTD=
EXTT0=
EXTT1=
EXTT2=
EXTT3=
EXTT4=
EXTT5=
EXTT6=
EXTT7=
EXTT8=
EXTT9=
PLAYORDER=
